<svg xmlns="http://www.w3.org/2000/svg" viewBox="0 0 2560 1440" width="2560" height="1440" style="background-color: #ffffff; font-family: 'Segoe UI', -apple-system, BlinkMacSystemFont, Roboto, Helvetica, Arial, sans-serif;">
  <defs>
    <style>
      .title { font-size: 32px; font-weight: 800; fill: #0f172a; text-anchor: middle; }
      .subtitle { font-size: 15px; fill: #64748b; text-anchor: middle; }
      .table-bg { fill: #ffffff; stroke: #cbd5e1; stroke-width: 1.5px; rx: 8px; filter: drop-shadow(0 4px 6px rgba(0,0,0,0.08)); }
      .header-bg-hub { fill: #fee2e2; stroke: #ef4444; stroke-width: 2px; }
      .header-bg-gym { fill: #d1fae5; stroke: #10b981; stroke-width: 2px; }
      .header-bg-coach { fill: #fef3c7; stroke: #f59e0b; stroke-width: 2px; }
      .header-bg-shop { fill: #ede9fe; stroke: #8b5cf6; stroke-width: 2px; }
      .header-bg-default { fill: #e0f2fe; stroke: #0284c7; stroke-width: 2px; }
      .th-title { font-size: 13px; font-weight: 700; fill: #0f172a; font-family: 'Segoe UI', sans-serif; letter-spacing: 0.5px; }
      .th-tag { font-size: 10px; fill: #475569; text-anchor: end; }
      .f-type { font-size: 11px; fill: #64748b; font-family: 'Consolas', 'Courier New', monospace; }
      .f-name { font-size: 11.5px; fill: #1e293b; font-family: 'Consolas', 'Courier New', monospace; font-weight: 600; }
      .pk-badge { fill: #dc2626; font-size: 9px; font-weight: bold; font-family: sans-serif; }
      .fk-badge { fill: #2563eb; font-size: 9px; font-weight: bold; font-family: sans-serif; }
      .line { stroke-width: 1.8; fill: none; }
      .line-hub { stroke: #0284c7; }
      .line-coach { stroke: #d97706; }
      .line-gym { stroke: #059669; }
      .line-shop { stroke: #7c3aed; }
    </style>
    <!-- Markers -->
    <marker id="crowsfoot-blue" viewBox="0 0 12 12" refX="10" refY="6" markerWidth="8" markerHeight="8" orient="auto-start-reverse">
      <path d="M 0 1 L 10 6 L 0 11 M 10 0 L 10 12" stroke="#0284c7" stroke-width="1.5" fill="none" />
    </marker>
    <marker id="crowsfoot-amber" viewBox="0 0 12 12" refX="10" refY="6" markerWidth="8" markerHeight="8" orient="auto-start-reverse">
      <path d="M 0 1 L 10 6 L 0 11 M 10 0 L 10 12" stroke="#d97706" stroke-width="1.5" fill="none" />
    </marker>
    <marker id="crowsfoot-green" viewBox="0 0 12 12" refX="10" refY="6" markerWidth="8" markerHeight="8" orient="auto-start-reverse">
      <path d="M 0 1 L 10 6 L 0 11 M 10 0 L 10 12" stroke="#059669" stroke-width="1.5" fill="none" />
    </marker>
    <marker id="crowsfoot-purple" viewBox="0 0 12 12" refX="10" refY="6" markerWidth="8" markerHeight="8" orient="auto-start-reverse">
      <path d="M 0 1 L 10 6 L 0 11 M 10 0 L 10 12" stroke="#7c3aed" stroke-width="1.5" fill="none" />
    </marker>
  </defs>

  <!-- Title Header -->
  <text x="1280" y="55" class="title">FordaGO: Entity Relationship Diagram (ERD)</text>
  <text x="1280" y="85" class="subtitle">Complete Relational Database Schema • AFFORDA Gym – Cabiao Branch • 3NF Normalized</text>

  <!-- Grid Background Box -->
  <rect x="50" y="110" width="2460" height="1280" rx="16" fill="#f8fafc" stroke="#e2e8f0" stroke-width="1.5" />

  <!-- CONNECTOR RELATIONSHIP LINES -->
  <!-- USERS -> ATTENDANCE -->
  <path d="M 1240 470 L 1240 820" class="line line-hub" marker-end="url(#crowsfoot-blue)" stroke-dasharray="4,4" />
  <!-- USERS -> NOTIFICATIONS -->
  <path d="M 1390 270 L 1600 270" class="line line-hub" marker-end="url(#crowsfoot-blue)" />
  <!-- USERS -> COACH_PROFILES -->
  <path d="M 1090 260 L 850 260" class="line line-coach" marker-end="url(#crowsfoot-amber)" />
  <!-- USERS -> WORKOUT_SESSIONS -->
  <path d="M 1120 470 L 1120 570 L 920 570 L 920 650" class="line line-hub" marker-end="url(#crowsfoot-blue)" />
  <!-- USERS -> PERSONAL_RECORDS -->
  <path d="M 1100 470 L 1100 530 L 610 530 L 610 650" class="line line-hub" marker-end="url(#crowsfoot-blue)" />
  <!-- USERS -> ORDERS -->
  <path d="M 1360 470 L 1360 570 L 1550 570 L 1550 650" class="line line-shop" marker-end="url(#crowsfoot-purple)" />
  <!-- PRODUCTS -> ORDERS -->
  <path d="M 1830 760 L 1690 760" class="line line-shop" marker-end="url(#crowsfoot-purple)" />
  <!-- COACH_PROFILES -> CONVERSATIONS -->
  <path d="M 710 390 L 710 500 L 310 500 L 310 580" class="line line-coach" marker-end="url(#crowsfoot-amber)" />
  <!-- CONVERSATIONS -> MESSAGES -->
  <path d="M 260 770 L 260 870" class="line line-coach" marker-end="url(#crowsfoot-amber)" />
  <!-- CONVERSATIONS -> WORKOUT_PLAN_PROPOSALS -->
  <path d="M 400 680 L 470 680 L 470 870" class="line line-coach" marker-end="url(#crowsfoot-amber)" />
  <!-- USERS -> CONVERSATIONS (Client) -->
  <path d="M 1090 320 L 450 320 L 450 580" class="line line-coach" stroke-dasharray="4,4" marker-end="url(#crowsfoot-amber)" />
  <!-- EQUIPMENT -> EQUIPMENT_SCAN_LOGS -->
  <path d="M 2180 470 L 2180 610" class="line line-gym" marker-end="url(#crowsfoot-green)" />
  <!-- USERS -> EQUIPMENT_SCAN_LOGS -->
  <path d="M 1390 320 L 1980 320 L 1980 680 L 2050 680" class="line line-gym" stroke-dasharray="4,4" marker-end="url(#crowsfoot-green)" />
  <!-- USERS -> FEEDBACKS -->
  <path d="M 1390 390 L 1830 390 L 1830 460" class="line line-hub" stroke-dasharray="4,4" marker-end="url(#crowsfoot-blue)" />


  <!-- 1. CENTRAL HUB: USERS -->
  <g transform="translate(1090, 140)">
    <rect width="300" height="330" class="table-bg" />
    <path d="M 0 8 Q 0 0 8 0 L 292 0 Q 300 0 300 8 L 300 34 L 0 34 Z" class="header-bg-hub" />
    <text x="14" y="22" class="th-title">users</text>
    <text x="286" y="22" class="th-tag">Core Identity Table</text>
    <!-- Fields -->
    <g transform="translate(14, 52)">
      <text y="0" class="f-type">INT</text><text x="105" y="0" class="f-name">id</text><text x="250" y="0" class="pk-badge">PK</text>
      <text y="18" class="f-type">VARCHAR(100)</text><text x="105" y="18" class="f-name">username</text>
      <text y="36" class="f-type">VARCHAR(100)</text><text x="105" y="36" class="f-name">first_name</text>
      <text y="54" class="f-type">VARCHAR(100)</text><text x="105" y="54" class="f-name">last_name</text>
      <text y="72" class="f-type">VARCHAR(150)</text><text x="105" y="72" class="f-name">email</text>
      <text y="90" class="f-type">VARCHAR(255)</text><text x="105" y="90" class="f-name">password</text>
      <text y="108" class="f-type">ENUM</text><text x="105" y="108" class="f-name">role</text>
      <text y="126" class="f-type">VARCHAR(20)</text><text x="105" y="126" class="f-name">phone</text>
      <text y="144" class="f-type">ENUM</text><text x="105" y="144" class="f-name">gender</text>
      <text y="162" class="f-type">LONGTEXT</text><text x="105" y="162" class="f-name">profile_image</text>
      <text y="180" class="f-type">ENUM</text><text x="105" y="180" class="f-name">membership_type</text>
      <text y="198" class="f-type">ENUM</text><text x="105" y="198" class="f-name">membership_status</text>
      <text y="216" class="f-type">ENUM</text><text x="105" y="216" class="f-name">payment_method</text>
      <text y="234" class="f-type">DATE</text><text x="105" y="234" class="f-name">membership_expiry</text>
      <text y="252" class="f-type">TIMESTAMP</text><text x="105" y="252" class="f-name">created_at</text>
    </g>
  </g>

  <!-- 2. ATTENDANCE -->
  <g transform="translate(1100, 820)">
    <rect width="280" height="200" class="table-bg" />
    <path d="M 0 8 Q 0 0 8 0 L 272 0 Q 280 0 280 8 L 280 34 L 0 34 Z" class="header-bg-gym" />
    <text x="14" y="22" class="th-title">attendance</text>
    <text x="266" y="22" class="th-tag">QR Turnstile Logs</text>
    <g transform="translate(14, 52)">
      <text y="0" class="f-type">INT</text><text x="95" y="0" class="f-name">id</text><text x="235" y="0" class="pk-badge">PK</text>
      <text y="18" class="f-type">INT</text><text x="95" y="18" class="f-name">user_id</text><text x="235" y="18" class="fk-badge">FK</text>
      <text y="36" class="f-type">DATETIME</text><text x="95" y="36" class="f-name">check_in_time</text>
      <text y="54" class="f-type">ENUM</text><text x="95" y="54" class="f-name">membership_type</text>
      <text y="72" class="f-type">ENUM</text><text x="95" y="72" class="f-name">payment_status</text>
      <text y="90" class="f-type">INT</text><text x="95" y="90" class="f-name">confirmed_by</text><text x="235" y="90" class="fk-badge">FK</text>
      <text y="108" class="f-type">DATETIME</text><text x="95" y="108" class="f-name">confirmed_at</text>
      <text y="126" class="f-type">TEXT</text><text x="95" y="126" class="f-name">notes</text>
    </g>
  </g>

  <!-- 3. COACH_PROFILES -->
  <g transform="translate(580, 160)">
    <rect width="270" height="230" class="table-bg" />
    <path d="M 0 8 Q 0 0 8 0 L 262 0 Q 270 0 270 8 L 270 34 L 0 34 Z" class="header-bg-coach" />
    <text x="14" y="22" class="th-title">coach_profiles</text>
    <text x="256" y="22" class="th-tag">Trainer Hub</text>
    <g transform="translate(14, 52)">
      <text y="0" class="f-type">INT</text><text x="100" y="0" class="f-name">id</text><text x="225" y="0" class="pk-badge">PK</text>
      <text y="18" class="f-type">INT</text><text x="100" y="18" class="f-name">user_id</text><text x="225" y="18" class="fk-badge">FK</text>
      <text y="36" class="f-type">TEXT</text><text x="100" y="36" class="f-name">specialties</text>
      <text y="54" class="f-type">DECIMAL(10,2)</text><text x="100" y="54" class="f-name">rate_per_session</text>
      <text y="72" class="f-type">TEXT</text><text x="100" y="72" class="f-name">bio</text>
      <text y="90" class="f-type">LONGTEXT</text><text x="100" y="90" class="f-name">photo_url</text>
      <text y="108" class="f-type">BOOLEAN</text><text x="100" y="108" class="f-name">is_active</text>
      <text y="126" class="f-type">DATE</text><text x="100" y="126" class="f-name">contract_expiry</text>
    </g>
  </g>

  <!-- 4. CONVERSATIONS -->
  <g transform="translate(150, 580)">
    <rect width="250" height="190" class="table-bg" />
    <path d="M 0 8 Q 0 0 8 0 L 242 0 Q 250 0 250 8 L 250 34 L 0 34 Z" class="header-bg-coach" />
    <text x="14" y="22" class="th-title">conversations</text>
    <text x="236" y="22" class="th-tag">Chat Channels</text>
    <g transform="translate(14, 52)">
      <text y="0" class="f-type">INT</text><text x="85" y="0" class="f-name">id</text><text x="205" y="0" class="pk-badge">PK</text>
      <text y="20" class="f-type">INT</text><text x="85" y="20" class="f-name">coach_id</text><text x="205" y="20" class="fk-badge">FK</text>
      <text y="40" class="f-type">INT</text><text x="85" y="40" class="f-name">client_id</text><text x="205" y="40" class="fk-badge">FK</text>
      <text y="60" class="f-type">ENUM</text><text x="85" y="60" class="f-name">status</text>
      <text y="80" class="f-type">TIMESTAMP</text><text x="85" y="80" class="f-name">created_at</text>
    </g>
  </g>

  <!-- 5. MESSAGES -->
  <g transform="translate(140, 870)">
    <rect width="260" height="220" class="table-bg" />
    <path d="M 0 8 Q 0 0 8 0 L 252 0 Q 260 0 260 8 L 260 34 L 0 34 Z" class="header-bg-coach" />
    <text x="14" y="22" class="th-title">messages</text>
    <text x="246" y="22" class="th-tag">Live Duplex Stream</text>
    <g transform="translate(14, 52)">
      <text y="0" class="f-type">INT</text><text x="100" y="0" class="f-name">id</text><text x="215" y="0" class="pk-badge">PK</text>
      <text y="18" class="f-type">INT</text><text x="100" y="18" class="f-name">conversation_id</text><text x="215" y="18" class="fk-badge">FK</text>
      <text y="36" class="f-type">INT</text><text x="100" y="36" class="f-name">sender_id</text><text x="215" y="36" class="fk-badge">FK</text>
      <text y="54" class="f-type">TEXT</text><text x="100" y="54" class="f-name">body</text>
      <text y="72" class="f-type">ENUM</text><text x="100" y="72" class="f-name">type</text>
      <text y="90" class="f-type">INT</text><text x="100" y="90" class="f-name">proposal_id</text><text x="215" y="90" class="fk-badge">FK</text>
      <text y="108" class="f-type">DATETIME</text><text x="100" y="108" class="f-name">read_at</text>
      <text y="126" class="f-type">TIMESTAMP</text><text x="100" y="126" class="f-name">created_at</text>
    </g>
  </g>

  <!-- 6. WORKOUT_PLAN_PROPOSALS -->
  <g transform="translate(440, 870)">
    <rect width="280" height="240" class="table-bg" />
    <path d="M 0 8 Q 0 0 8 0 L 272 0 Q 280 0 280 8 L 280 34 L 0 34 Z" class="header-bg-coach" />
    <text x="14" y="22" class="th-title">workout_plan_proposals</text>
    <text x="266" y="22" class="th-tag">In-Chat Proposals</text>
    <g transform="translate(14, 52)">
      <text y="0" class="f-type">INT</text><text x="105" y="0" class="f-name">id</text><text x="235" y="0" class="pk-badge">PK</text>
      <text y="18" class="f-type">INT</text><text x="105" y="18" class="f-name">conversation_id</text><text x="235" y="18" class="fk-badge">FK</text>
      <text y="36" class="f-type">INT</text><text x="105" y="36" class="f-name">coach_id</text><text x="235" y="36" class="fk-badge">FK</text>
      <text y="54" class="f-type">INT</text><text x="105" y="54" class="f-name">client_id</text><text x="235" y="54" class="fk-badge">FK</text>
      <text y="72" class="f-type">VARCHAR(150)</text><text x="105" y="72" class="f-name">title</text>
      <text y="90" class="f-type">DECIMAL(10,2)</text><text x="105" y="90" class="f-name">price</text>
      <text y="108" class="f-type">DATE</text><text x="105" y="108" class="f-name">scheduled_date</text>
      <text y="126" class="f-type">ENUM</text><text x="105" y="126" class="f-name">status</text>
      <text y="144" class="f-type">TIMESTAMP</text><text x="105" y="144" class="f-name">created_at</text>
    </g>
  </g>

  <!-- 7. PERSONAL_RECORDS -->
  <g transform="translate(490, 650)">
    <rect width="250" height="180" class="table-bg" />
    <path d="M 0 8 Q 0 0 8 0 L 242 0 Q 250 0 250 8 L 250 34 L 0 34 Z" class="header-bg-gym" />
    <text x="14" y="22" class="th-title">personal_records</text>
    <text x="236" y="22" class="th-tag">PR Tracker</text>
    <g transform="translate(14, 52)">
      <text y="0" class="f-type">INT</text><text x="95" y="0" class="f-name">id</text><text x="205" y="0" class="pk-badge">PK</text>
      <text y="20" class="f-type">INT</text><text x="95" y="20" class="f-name">user_id</text><text x="205" y="20" class="fk-badge">FK</text>
      <text y="40" class="f-type">VARCHAR(100)</text><text x="95" y="40" class="f-name">exercise_name</text>
      <text y="60" class="f-type">DECIMAL(8,2)</text><text x="95" y="60" class="f-name">max_weight</text>
      <text y="80" class="f-type">INT</text><text x="95" y="80" class="f-name">reps</text>
      <text y="100" class="f-type">DATE</text><text x="95" y="100" class="f-name">achieved_at</text>
    </g>
  </g>

  <!-- 8. WORKOUT_SESSIONS -->
  <g transform="translate(780, 650)">
    <rect width="270" height="240" class="table-bg" />
    <path d="M 0 8 Q 0 0 8 0 L 262 0 Q 270 0 270 8 L 270 34 L 0 34 Z" class="header-bg-gym" />
    <text x="14" y="22" class="th-title">workout_sessions</text>
    <text x="256" y="22" class="th-tag">Daily Splits</text>
    <g transform="translate(14, 52)">
      <text y="0" class="f-type">INT</text><text x="100" y="0" class="f-name">id</text><text x="225" y="0" class="pk-badge">PK</text>
      <text y="18" class="f-type">INT</text><text x="100" y="18" class="f-name">user_id</text><text x="225" y="18" class="fk-badge">FK</text>
      <text y="36" class="f-type">VARCHAR(100)</text><text x="100" y="36" class="f-name">client_session_id</text>
      <text y="54" class="f-type">INT</text><text x="100" y="54" class="f-name">coach_id</text><text x="225" y="54" class="fk-badge">FK</text>
      <text y="72" class="f-type">INT</text><text x="100" y="72" class="f-name">proposal_id</text><text x="225" y="72" class="fk-badge">FK</text>
      <text y="90" class="f-type">DATE</text><text x="100" y="90" class="f-name">session_date</text>
      <text y="108" class="f-type">VARCHAR(50)</text><text x="100" y="108" class="f-name">split_day</text>
      <text y="126" class="f-type">JSON</text><text x="100" y="126" class="f-name">exercises</text>
      <text y="144" class="f-type">DATETIME</text><text x="100" y="144" class="f-name">completed_at</text>
    </g>
  </g>

  <!-- 9. ORDERS -->
  <g transform="translate(1430, 650)">
    <rect width="260" height="230" class="table-bg" />
    <path d="M 0 8 Q 0 0 8 0 L 252 0 Q 260 0 260 8 L 260 34 L 0 34 Z" class="header-bg-shop" />
    <text x="14" y="22" class="th-title">orders</text>
    <text x="246" y="22" class="th-tag">Shop POS &amp; GCash</text>
    <g transform="translate(14, 52)">
      <text y="0" class="f-type">INT</text><text x="100" y="0" class="f-name">id</text><text x="215" y="0" class="pk-badge">PK</text>
      <text y="18" class="f-type">INT</text><text x="100" y="18" class="f-name">user_id</text><text x="215" y="18" class="fk-badge">FK</text>
      <text y="36" class="f-type">INT</text><text x="100" y="36" class="f-name">product_id</text><text x="215" y="36" class="fk-badge">FK</text>
      <text y="54" class="f-type">INT</text><text x="100" y="54" class="f-name">quantity</text>
      <text y="72" class="f-type">DECIMAL(10,2)</text><text x="100" y="72" class="f-name">total</text>
      <text y="90" class="f-type">ENUM</text><text x="100" y="90" class="f-name">status</text>
      <text y="108" class="f-type">VARCHAR(100)</text><text x="100" y="108" class="f-name">order_group_id</text>
      <text y="126" class="f-type">ENUM</text><text x="100" y="126" class="f-name">payment_method</text>
      <text y="144" class="f-type">VARCHAR(100)</text><text x="100" y="144" class="f-name">gcash_reference</text>
    </g>
  </g>

  <!-- 10. PRODUCTS -->
  <g transform="translate(1830, 650)">
    <rect width="250" height="200" class="table-bg" />
    <path d="M 0 8 Q 0 0 8 0 L 242 0 Q 250 0 250 8 L 250 34 L 0 34 Z" class="header-bg-shop" />
    <text x="14" y="22" class="th-title">products</text>
    <text x="236" y="22" class="th-tag">Supplement Stock</text>
    <g transform="translate(14, 52)">
      <text y="0" class="f-type">INT</text><text x="95" y="0" class="f-name">id</text><text x="205" y="0" class="pk-badge">PK</text>
      <text y="18" class="f-type">VARCHAR(150)</text><text x="95" y="18" class="f-name">name</text>
      <text y="36" class="f-type">VARCHAR(100)</text><text x="95" y="36" class="f-name">brand</text>
      <text y="54" class="f-type">DECIMAL(10,2)</text><text x="95" y="54" class="f-name">price</text>
      <text y="72" class="f-type">INT</text><text x="95" y="72" class="f-name">stock</text>
      <text y="90" class="f-type">VARCHAR(255)</text><text x="95" y="90" class="f-name">image_url</text>
      <text y="108" class="f-type">TIMESTAMP</text><text x="95" y="108" class="f-name">created_at</text>
    </g>
  </g>

  <!-- 11. NOTIFICATIONS -->
  <g transform="translate(1600, 160)">
    <rect width="250" height="200" class="table-bg" />
    <path d="M 0 8 Q 0 0 8 0 L 242 0 Q 250 0 250 8 L 250 34 L 0 34 Z" class="header-bg-default" />
    <text x="14" y="22" class="th-title">notifications</text>
    <text x="236" y="22" class="th-tag">Push Alerts</text>
    <g transform="translate(14, 52)">
      <text y="0" class="f-type">INT</text><text x="95" y="0" class="f-name">id</text><text x="205" y="0" class="pk-badge">PK</text>
      <text y="20" class="f-type">INT</text><text x="95" y="20" class="f-name">user_id</text><text x="205" y="20" class="fk-badge">FK</text>
      <text y="40" class="f-type">VARCHAR(150)</text><text x="95" y="40" class="f-name">title</text>
      <text y="60" class="f-type">TEXT</text><text x="95" y="60" class="f-name">message</text>
      <text y="80" class="f-type">BOOLEAN</text><text x="95" y="80" class="f-name">is_read</text>
      <text y="100" class="f-type">TIMESTAMP</text><text x="95" y="100" class="f-name">created_at</text>
    </g>
  </g>

  <!-- 12. EQUIPMENT -->
  <g transform="translate(2050, 260)">
    <rect width="260" height="210" class="table-bg" />
    <path d="M 0 8 Q 0 0 8 0 L 252 0 Q 260 0 260 8 L 260 34 L 0 34 Z" class="header-bg-gym" />
    <text x="14" y="22" class="th-title">equipment</text>
    <text x="246" y="22" class="th-tag">Machine Placards</text>
    <g transform="translate(14, 52)">
      <text y="0" class="f-type">INT</text><text x="95" y="0" class="f-name">id</text><text x="215" y="0" class="pk-badge">PK</text>
      <text y="18" class="f-type">VARCHAR(150)</text><text x="95" y="18" class="f-name">name</text>
      <text y="36" class="f-type">VARCHAR(100)</text><text x="95" y="36" class="f-name">category</text>
      <text y="54" class="f-type">VARCHAR(100)</text><text x="95" y="54" class="f-name">muscle_group</text>
      <text y="72" class="f-type">VARCHAR(100)</text><text x="95" y="72" class="f-name">qr_code</text>
      <text y="90" class="f-type">TEXT</text><text x="95" y="90" class="f-name">description</text>
      <text y="108" class="f-type">TIMESTAMP</text><text x="95" y="108" class="f-name">created_at</text>
    </g>
  </g>

  <!-- 13. EQUIPMENT_SCAN_LOGS -->
  <g transform="translate(2050, 610)">
    <rect width="260" height="170" class="table-bg" />
    <path d="M 0 8 Q 0 0 8 0 L 252 0 Q 260 0 260 8 L 260 34 L 0 34 Z" class="header-bg-gym" />
    <text x="14" y="22" class="th-title">equipment_scan_logs</text>
    <text x="246" y="22" class="th-tag">QR Analytics</text>
    <g transform="translate(14, 52)">
      <text y="0" class="f-type">INT</text><text x="95" y="0" class="f-name">id</text><text x="215" y="0" class="pk-badge">PK</text>
      <text y="20" class="f-type">INT</text><text x="95" y="20" class="f-name">user_id</text><text x="215" y="20" class="fk-badge">FK</text>
      <text y="40" class="f-type">INT</text><text x="95" y="40" class="f-name">equipment_id</text><text x="215" y="40" class="fk-badge">FK</text>
      <text y="60" class="f-type">DATETIME</text><text x="95" y="60" class="f-name">scanned_at</text>
    </g>
  </g>

  <!-- 14. FEEDBACKS -->
  <g transform="translate(1720, 460)">
    <rect width="240" height="160" class="table-bg" />
    <path d="M 0 8 Q 0 0 8 0 L 232 0 Q 240 0 240 8 L 240 34 L 0 34 Z" class="header-bg-default" />
    <text x="14" y="22" class="th-title">feedbacks</text>
    <text x="226" y="22" class="th-tag">App Ratings</text>
    <g transform="translate(14, 52)">
      <text y="0" class="f-type">INT</text><text x="85" y="0" class="f-name">id</text><text x="195" y="0" class="pk-badge">PK</text>
      <text y="20" class="f-type">INT</text><text x="85" y="20" class="f-name">user_id</text><text x="195" y="20" class="fk-badge">FK</text>
      <text y="40" class="f-type">INT</text><text x="85" y="40" class="f-name">rating</text>
      <text y="60" class="f-type">TEXT</text><text x="85" y="60" class="f-name">comments</text>
    </g>
  </g>

  <!-- LEGEND -->
  <g transform="translate(80, 1310)">
    <rect width="780" height="50" rx="8" fill="#ffffff" stroke="#cbd5e1" stroke-width="1" />
    <circle cx="25" cy="25" r="6" fill="#ef4444" /><text x="40" y="29" fill="#475569" font-size="12">Core Identity (users)</text>
    <circle cx="210" cy="25" r="6" fill="#10b981" /><text x="225" y="29" fill="#475569" font-size="12">Gym &amp; Equipment</text>
    <circle cx="380" cy="25" r="6" fill="#f59e0b" /><text x="395" y="29" fill="#475569" font-size="12">Coach &amp; Real-Time Chat</text>
    <circle cx="585" cy="25" r="6" fill="#8b5cf6" /><text x="600" y="29" fill="#475569" font-size="12">Supplement POS &amp; Shop</text>
    <text x="745" y="29" fill="#dc2626" font-weight="bold" font-size="11">PK</text>
    <text x="765" y="29" fill="#2563eb" font-weight="bold" font-size="11">FK</text>
  </g>

</svg>
